<svg viewBox="0 0 800 800" xmlns="http://www.w3.org/2000/svg"><path d="M270.86470888079975,171.91751980039749 L307.7430120399675,187.37641916617375 M307.7430120399675,187.37641916617375 L349.99292160421595,197.31027932205913 M349.99292160421595,197.31027932205913 L395.1546556215323,201.1393238262973 M395.1546556215323,201.1393238262973 L440.5977348424183,198.64001329776187 M440.5977348424183,198.64001329776187 L483.6751921655928,189.95826316017218 M483.6751921655928,189.95826316017218 L521.878741139369,175.60081716987605 M521.878741139369,175.60081716987605 L552.9856878246209,156.40528998481685 M552.9856878246209,156.40528998481685 L575.1886390463765,133.49075600602578 M575.1886390463765,133.49075600602578 L587.2004369596776,108.19189717735264 M587.2004369596776,108.19189717735264 L588.3282854546026,81.98078813780353 M588.3282854546026,81.98078813780353 L578.5127065031668,56.38088241269929 M578.5127065031668,56.38088241269929 L558.3296759778325,32.878490526482096 M558.3296759778325,32.878490526482096 L528.9558605409736,12.836705592737076 M528.9558605409736,12.836705592737076 L492.0994121312843,-2.5831767641593615 M492.0994121312843,-2.5831767641593615 L449.9004002485366,-12.488326775350288 M449.9004002485366,-12.488326775350288 L404.80694676908354,-16.305545150961052 M404.80694676908354,-16.305545150961052 L359.4338886828159,-13.81400172618919 M359.4338886828159,-13.81400172618919 L316.41215210305296,-5.157832574880558 M316.41215210305296,-5.157832574880558 L278.23725851111897,9.16207885091012 M278.23725851111897,9.16207885091012 L247.1253372581041,28.316716610107733 M247.1253372581041,28.316716610107733 L224.88492114503785,51.19637357734041 M224.88492114503785,51.19637357734041 L212.81175075226218,76.4743576987795 M212.81175075226218,76.4743576987795 L211.61268193016235,102.68337648416946 M211.61268193016235,102.68337648416946 L221.3635083666052,128.30045525543903 M221.3635083666052,128.30045525543903 L241.50308822811692,151.83534935277024 M241.50308822811692,151.83534935277024 L270.86470888079975,171.91751980039749 M271.15180694076656,790.0752933568436 L270.86470888079975,171.91751980039749 M271.15180694076656,790.0752933568436 L307.9481340895791,805.5688097107228 M307.9481340895791,805.5688097107228 L350.10409847311433,815.5249106116064 M350.10409847311433,815.5249106116064 L395.1653972683557,819.3625270465408 M395.1653972683557,819.3625270465408 L440.5074141207104,816.8576214638309 M440.5074141207104,816.8576214638309 L483.48908190804843,808.1564344559708 M483.48908190804843,808.1564344559708 L521.6077023267056,793.7668394036817 M521.6077023267056,793.7668394036817 L552.6455280290804,774.5283193836333 M552.6455280290804,774.5283193836333 L574.7991809712242,751.5624474318149 M574.7991809712242,751.5624474318149 L586.7843540983266,726.2068890938612 M586.7843540983266,726.2068890938612 L587.9097752273542,699.9370142490999 M587.9097752273542,699.9370142490999 L578.1160804120253,674.2796916602898 M578.1160804120253,674.2796916602898 L557.9779491603974,650.724568719708 M557.9779491603974,650.724568719708 L528.6694223292097,630.6378030368861 M528.6694223292097,630.6378030368861 L491.8948529056275,615.1833042732254 M491.8948529056275,615.1833042732254 L449.78956024295036,605.2559139447756 M449.78956024295036,605.2559139447756 L404.7962388535304,601.4301238146529 M404.7962388535304,601.4301238146529 L359.52393227635065,603.927262177886 M359.52393227635065,603.927262177886 L316.59773785974255,612.6028678183504 M316.59773785974255,612.6028678183504 L278.5076456072079,626.9549277468931 M278.5076456072079,626.9549277468931 L247.46486742179516,646.1525577318016 M247.46486742179516,646.1525577318016 L225.2739159140509,669.0835521523295 M225.2739159140509,669.0835521523295 L213.22764277101373,694.4182354719591 M213.22764277101373,694.4182354719591 L212.0313174978966,720.68602003141 M212.0313174978966,720.68602003141 L221.76054726744977,746.3605159223131 M221.76054726744977,746.3605159223131 L241.85542075482928,769.948141558359 M241.85542075482928,769.948141558359 L271.15180694076656,790.0752933568436 M257.15156154517325,792.7754651393548 L296.23081485599795,807.9742423444771 M296.23081485599795,807.9742423444771 L341.57237482245944,817.1445784885145 M341.57237482245944,817.1445784885145 L390.44100542351276,819.5851992143988 M390.44100542351276,819.5851992143988 L439.8876754950041,815.0006810223356 M439.8876754950041,815.0006810223356 L486.9265350576288,803.5222846254361 M486.9265350576288,803.5222846254361 L528.7173627657862,785.699506837649 M528.7173627657862,785.699506837649 L562.7391095213575,762.4652047046393 M562.7391095213575,762.4652047046393 L586.9429374951436,735.0777679811567 M586.9429374951436,735.0777679811567 L599.875211413079,705.0443972680636 M599.875211413079,705.0443972680636 L600.7634278018086,674.0301382184425 M600.7634278018086,674.0301382184425 L589.5610151336255,643.7577877581548 M589.5610151336255,643.7577877581548 L566.9484689596584,615.9043018933935 M566.9484689596584,615.9043018933935 L534.2915137357322,591.9994547848728 M534.2915137357322,591.9994547848728 L493.5584266365315,573.3332858586143 M493.5584266365315,573.3332858586143 L447.2010802974206,560.8788413022473 M447.2010802974206,560.8788413022473 L398.00619844230505,555.237518401381 M398.00619844230505,555.237518401381 L348.9293654380215,556.606080868949 M348.9293654380215,556.606080868949 L302.9190275045074,564.7539048833851 M302.9190275045074,564.7539048833851 L262.7414947846702,579.0482666227344 M262.7414947846702,579.0482666227344 L230.81570109759727,598.4882489688364 M230.81570109759727,598.4882489688364 L209.06640176857343,621.7614763081632 M209.06640176857343,621.7614763081632 L198.80789111100117,647.3228424840097 M198.80789111100117,647.3228424840097 L200.66435833591476,673.4880539592668 M200.66435833591476,673.4880539592668 L214.53133676248495,698.535330152455 M214.53133676248495,698.535330152455 L239.58035716581915,720.8089499323138 M239.58035716581915,720.8089499323138 L274.3069628941452,738.8187583492378 M274.3069628941452,738.8187583492378 L316.6198040386496,751.330183439026 M316.6198040386496,751.330183439026 L363.9663269048299,757.439562131855 M363.9663269048299,757.439562131855 L413.487740665896,756.6302436492683 M413.487740665896,756.6302436492683 L462.1937842584047,748.8054683425432 M462.1937842584047,748.8054683425432 L507.14535237330523,734.2944134686726 M507.14535237330523,734.2944134686726 L545.6303963730617,713.8289634758286 M545.6303963730617,713.8289634758286 L575.3251848260875,688.4980673345916 M575.3251848260875,688.4980673345916 L594.4481209682247,659.6885876756369 M594.4481209682247,659.6885876756369 L601.8510435381182,628.9927402005695 M601.8510435381182,628.9927402005695 L597.0921030635369,598.1144416115034 M597.0921030635369,598.1144416115034 L580.4647990736943,568.7674590572225 M580.4647990736943,568.7674590572225 L552.9777374871362,542.5717951212932 M552.9777374871362,542.5717951212932 L516.290588669863,520.9561480293144 M516.290588669863,520.9561480293144 L472.61227999252736,505.07255545161047 M472.61227999252736,505.07255545161047 L424.5683869563348,495.72826606848065 M424.5683869563348,495.72826606848065 L375.0451587673683,493.33825125236314 M375.0451587673683,493.33825125236314 L327.01842710411916,497.90097180688315 M327.01842710411916,497.90097180688315 L283.3762223312888,508.99829965410095 M283.3762223312888,508.99829965410095 L246.74502172628064,525.8198299055487 M246.74502172628064,525.8198299055487 L219.33032159397882,547.2106253102845 M219.33032159397882,547.2106253102845 L202.78322341629004,571.7398702659071 M202.78322341629004,571.7398702659071 L198.10634960178794,597.7872194853453 M198.10634960178794,597.7872194853453 L205.59423322973674,623.6391490009913 M205.59423322973674,623.6391490009913 L224.79655544594218,647.5921477494206 M224.79655544594218,647.5921477494206 L254.5638930879229,668.0546670878365 M254.5638930879229,668.0546670878365 L293.1081745888423,683.6440283552967 M293.1081745888423,683.6440283552967 L338.1060775692205,693.2714236658596 M338.1060775692205,693.2714236658596 L386.84070453282453,696.2085709553867 M386.84070453282453,696.2085709553867 L436.36847560779603,692.1318629240941 M436.36847560779603,692.1318629240941 L483.69906334234514,681.1419451998278 M483.69906334234514,681.1419451998278 L525.9767566541474,663.7574852458642 M525.9767566541474,663.7574852458642 L560.6525748553288,640.8835848553108 M560.6525748553288,640.8835848553108 L585.6375065909633,613.7567029372021 M585.6375065909633,613.7567029372021 L599.4284762222527,583.86940594046 M599.4284762222527,583.86940594046 L601.1993822560536,552.8791223793654 M601.1993822560536,552.8791223793654 L590.8514660557901,522.5072654734238 M590.8514660557901,522.5072654734238 L569.0175059419004,494.43499827585543 M569.0175059419004,494.43499827585543 L537.0163293410043,470.20418470469747 M537.0163293410043,470.20418470469747 L496.7729265425297,451.12660165831346 M496.7729265425297,451.12660165831346 L450.71284705245665,438.1987353392344 M450.71284705245665,438.1987353392344 L401.6038689530963,432.0515963493136 M401.6038689530963,432.0515963493136 L352.3957540677713,432.9101383231195 M352.3957540677713,432.9101383231195 L306.04582588828197,440.5778073653784 M306.04582588828197,440.5778073653784 L265.3415118516686,454.44889205520883 M265.3415118516686,454.44889205520883 L232.73260799606996,473.5453332704046 M232.73260799606996,473.5453332704046 L210.18417715944918,496.57545424058003 M210.18417715944918,496.57545424058003 L199.0582956227831,522.0105159028486 M199.0582956227831,522.0105159028486 L200.03158123228033,548.175248603929 M200.03158123228033,548.175248603929 L213.05325607721687,573.3476955677295 M213.05325607721687,573.3476955677295 L237.3460997646514,595.8629480935016 M237.3460997646514,595.8629480935016 L271.45118863758324,614.2146864413867 M271.45118863758324,614.2146864413867 L313.31418830389913,627.1481446252594 M313.31418830389913,627.1481446252594 L360.4095060535767,633.7368022815326 M360.4095060535767,633.7368022815326 L409.8948989004146,633.4352584624758 M409.8948989004146,633.4352584624758 L458.7826382521192,626.1128920121167 M458.7826382521192,626.1128920121167 L504.12193421930994,612.0703215011944 M504.12193421930994,612.0703215011944 L543.1763216438645,592.0096387130138 M543.1763216438645,592.0096387130138 L573.5904974794284,566.9962685913725 M573.5904974794284,566.9962685913725 L593.5339653495054,538.3956561376608 M593.5339653495054,538.3956561376608 L601.810731516504,507.7891205070714 M601.810731516504,507.7891205070714 L597.9295291634155,476.87664543778743 M597.9295291634155,476.87664543778743 L582.1312230591994,447.37370988096086 M582.1312230591994,447.37370988096086 L555.3725619776785,420.9083696558257 M555.3725619776785,420.9083696558257 L519.2676590659028,398.9246523907206 M519.2676590659028,398.9246523907206 L475.9906944519175,382.59700944394774 M475.9906944519175,382.59700944394774 L428.1452230322199,372.7604931308417 M428.1452230322199,372.7604931308417 L378.60769414559235,369.86044018723817 M378.60769414559235,369.86044018723817 L330.3544852553408,373.92501512541213 M330.3544852553408,373.92501512541213 L286.28394411893504,384.56367205766134 M286.28394411893504,384.56367205766134 L249.04699895533744,400.99397348625763 M249.04699895533744,400.99397348625763 L220.88869874338656,422.08634596581857 M220.88869874338656,422.08634596581857 L203.50288169123118,446.42636142707096 M203.50288169123118,446.42636142707096 L197.9445708683344,472.40572621446466 M197.9445708683344,472.40572621446466 L204.55833704368393,498.3154370747553 M204.55833704368393,498.3154370747553 L222.9528197005446,522.4477563235334 M222.9528197005446,522.4477563235334 L252.02384159516626,543.1999985417254 M252.02384159516626,543.1999985417254 L290.0216242682978,559.1722671202199 M290.0216242682978,559.1722671202199 L334.65654561250403,569.2528764064656 M334.65654561250403,569.2528764064656 L383.2368812056574,572.6860923174387 M383.2368812056574,572.6860923174387 L432.83076270493666,569.1179318838127 M432.83076270493666,569.1179318838127 L480.4432223312965,558.6179019032008 M480.4432223312965,558.6179019032008 L523.1984066755878,541.6748152480499 M523.1984066755878,541.6748152480499 L558.5158436995376,519.1671230144497 M558.5158436995376,519.1671230144497 L584.2689102332249,492.3095726785222 M584.2689102332249,492.3095726785222 L598.91293091678,462.57852726506326 M598.91293091678,462.57852726506326 L601.5699759851323,431.6212898594231 M601.5699759851323,431.6212898594231 L592.0835976205021,401.15714090157206 M592.0835976205021,401.15714090157206 L571.0377052282552,372.87322605911976 M571.0377052282552,372.87322605911976 L539.701788507154,348.32457303685567 M539.701788507154,348.32457303685567 L499.96233107811383,328.8404080770689 M499.96233107811383,328.8404080770689 L454.2114714337103,315.4445789067913 M454.2114714337103,315.4445789067913 L405.201595880438,308.79475673006993 M405.201595880438,308.79475673006993 L355.8788525320019,309.1441388964239 M355.8788525320019,309.1441388964239 L309.2065196241259,316.3265678781294 M309.2065196241259,316.3265678781294 L267.98893428921696,329.7665753006026 M267.98893428921696,329.7665753006026 L234.70528774027937,348.5129037161676 M234.70528774027937,348.5129037161676 L211.3618245983128,371.2947256301867 M211.3618245983128,371.2947256301867 L199.37056727778005,396.5970385266253 M199.37056727778005,396.5970385266253 L199.46163540958582,422.7515021277035 M199.46163540958582,422.7515021277035 L211.63584666941287,448.0370738111401 M211.63584666941287,448.0370738111401 L235.1634791710768,470.783947147621 M235.1634791710768,470.783947147621 L268.6336381851147,489.4720679287144 M268.6336381851147,489.4720679287144 L310.0330720448614,502.82470429894266 M310.0330720448614,502.82470429894266 L356.8619963603134,509.8907426581119 M356.8619963603134,509.8907426581119 L406.2955881375307,510.0948373331149 M406.2955881375307,510.0948373331149 L455.3499687968538,503.2769658008691 M455.3499687968538,503.2769658008691 L501.0627739731744,489.7037044197872 M501.0627739731744,489.7037044197872 L540.674386353051,470.05102719975366 M540.674386353051,470.05102719975366 L571.7963525597171,445.3616556683911 M571.7963525597171,445.3616556683911 L592.555812798203,416.98098511749856 M592.555812798203,416.98098511749856 L601.7075076770055,386.4751692764371 M601.7075076770055,386.4751692764371 L598.707027390688,355.53695895588373 M598.707027390688,355.53695895588373 L583.7418004250787,325.8839160092213 M583.7418004250787,325.8839160092213 L557.7184144380099,299.1548740325034 M557.7184144380099,299.1548740325034 L522.2072763771761,276.8110540210366 M522.2072763771761,276.8110540210366 L479.34773997908684,260.0474667324211 M479.34773997908684,260.0474667324211 L431.718667023335,249.72241462693594 M431.718667023335,249.72241462693594 L382.1820878785089,246.31107749155746 M382.1820878785089,246.31107749155746 L333.71438845884376,249.87405826003578 M333.71438845884376,249.87405826003578 L289.2274744944086,260.0494875536822 M289.2274744944086,260.0494875536822 L251.3973176251775,276.0835161508354 M251.3973176251775,276.0835161508354 L222.50243132542985,296.86984568515993 M222.50243132542985,296.86984568515993 L204.28585288238594,321.01400465296103 M204.28585288238594,321.01400465296103 L197.84981461598963,346.91764629320164 M197.84981461598963,346.91764629320164 L203.5887524871359,372.8752068622989 M203.5887524871359,372.8752068622989 L221.16440007424558,397.1766395120086 M221.16440007424558,397.1766395120086 L249.52431366154056,418.21042880477756 M249.52431366154056,418.21042880477756 L286.9634653002448,434.56026992708195 M286.9634653002448,434.56026992708195 L331.22575481514326,445.0910646894573 M331.22575481514326,445.0910646894573 L379.6399898666102,449.01831067597396 M379.6399898666102,449.01831067597396 L429.28257195981666,445.9573539697353 M429.28257195981666,445.9573539697353 L477.1564229664662,435.94791507410287 M477.1564229664662,435.94791507410287 L520.3732319880095,419.451049149212 M520.3732319880095,419.451049149212 L556.3243656772693,397.3166691916405 M556.3243656772693,397.3166691916405 L582.8425076701507,370.7360042482449 M582.8425076701507,370.7360042482449 L598.3376336312328,341.1697836982408 M598.3376336312328,341.1697836982408 L601.8794382853292,310.25461927919787 M601.8794382853292,310.25461927919787 L593.2596239044035,279.70699726943957 M593.2596239044035,279.70699726943957 L573.0047070953351,251.22002220796497 M573.0047070953351,251.22002220796497 L542.3411452851026,226.3610008505311 M542.3411452851026,226.3610008505311 L503.11848835871945,206.47748062566674 M503.11848835871945,206.47748062566674 L457.6968241037929,192.61678903273463 M457.6968241037929,192.61678903273463 L408.80568820968176,185.46444648475608 M408.80568820968176,185.46444648475608 L359.38221598254006,185.3038224512269 M359.38221598254006,185.3038224512269 L312.39682392265524,191.99944455200475 M312.39682392265524,191.99944455200475 L270.6756892433871,205.00498615154658 M270.6756892433871,205.00498615154658 L236.73017311228426,223.39494265653997 M236.73017311228426,223.39494265653997 L212.60412487653932,245.91947056294865 M212.60412487653932,245.91947056294865 L199.75149071919375,271.0788727516541 M199.75149071919375,271.0788727516541 L198.95641615127877,297.2143315139168 M198.95641615127877,297.2143315139168 L210.2753700891967,322.60589522053397 M210.2753700891967,322.60589522053397 L233.02865519790683,345.5768379804107 M233.02865519790683,345.5768379804107 L265.8533588018556,364.5937978383927 M265.8533588018556,364.5937978383927 L306.7751971315465,378.3607620773471 M306.7751971315465,378.3607620773471 L353.3257789799731,385.8987704768389 M353.3257789799731,385.8987704768389 L402.6937970797782,386.6056098260569 M402.6937970797782,386.6056098260569 L451.8976042587449,380.2922149914226 M451.8976042587449,380.2922149914226 L497.9670402584615,367.19422932904564 M497.9670402584615,367.19422932904564 L538.1231243005321,347.95736519812533 M538.1231243005321,347.95736519812533 L569.9453280369185,323.5983269692885 M569.9453280369185,323.5983269692885 L591.5172276203608,295.4427566083084 M591.5172276203608,295.4427566083084 L601.5421052166977,265.04455192330676 M601.5421052166977,265.04455192330676 L599.4217741633312,234.09098048801098 M599.4217741633312,234.09098048801098 L585.2927542052247,204.29985283584858 M585.2927542052247,204.29985283584858 L560.0149449334797,177.31638111337176 M560.0149449334797,177.31638111337176 L525.1108925715165,154.6173690179196 M525.1108925715165,154.6173690179196 L482.6828084158068,137.42018151292234 M482.6828084158068,137.42018151292234 L435.2852629563191,126.60873216147775 M435.2852629563191,126.60873216147775 L385.76537717195987,122.68740298878356 M385.76537717195987,122.68740298878356 L337.09801815444564,125.7469960158304 M337.09801815444564,125.7469960158304 L292.2086092820043,135.45822973462134 M292.2086092820043,135.45822973462134 L253.79733414219376,151.09238338599562 M253.79733414219376,151.09238338599562 L224.17675199773905,171.56535970938805 M224.17675199773905,171.56535970938805 L205.1328696035629,195.50229635505093 M205.1328696035629,195.50229635505093 L197.8176133124849,221.31920402831014 M197.8176133124849,221.31920402831014 L202.67869214810818,247.31664353239296 M202.67869214810818,247.31664353239296 L219.431189814875,271.781498330206 M219.431189814875,271.781498330206 L247.0724997436684,293.0905012418589 M247.0724997436684,293.0905012418589 L283.9407009563988,309.8096410214514 M283.9407009563988,309.8096410214514 L327.8136446724987,320.78279724393104 M327.8136446724987,320.78279724393104 L376.043775491926,325.2014904583839 M376.043775491926,325.2014904583839 L425.720356012517,322.64922896974866 M425.720356012517,322.64922896974866 L473.84384478010145,313.134227517182 M473.84384478010145,313.134227517182 L517.5098467871549,297.0879877916002 M517.5098467871549,297.0879877916002 L554.0831620300612,275.33276726265655 M554.0831620300612,275.33276726265655 L581.359251030873,249.0365042410201 M581.359251030873,249.0365042410201 L597.6980033486215,219.6417121286765 M597.6980033486215,219.6417121286765 L602.1214315966798,188.77671643641412 M602.1214315966798,188.77671643641412 L594.3705591632613,158.15576885972123 M594.3705591632613,158.15576885972123 L574.918873679325,129.47566355893878 M574.918873679325,129.47566355893878 L544.9423666113379,104.31399877973581 M544.9423666113379,104.31399877973581 L506.2480335395219,84.03586713627993 M506.2480335395219,84.03586713627993 L461.16513548690205,69.71314446252302 M461.16513548690205,69.71314446252302 L412.4052282332275,62.0601892026383 M412.4052282332275,62.0601892026383 L362.8991756955218,61.39066320613733 M362.8991756955218,61.39066320613733 L315.62095950693856,67.59838860034404 M315.62095950693856,67.59838860034404 L273.4107564724606,80.1639852220053 M273.4107564724606,80.1639852220053 L238.81053393858372,98.19046449079462 M238.81053393858372,98.19046449079462 L213.90424947692736,120.44989688297915 M213.90424947692736,120.44989688297915 L200.19281610027454,145.4578808887768 M200.19281610027454,145.4578808887768 L198.5115075667966,171.5652605429775 M198.5115075667966,171.5652605429775 L208.9707520185108,197.05400916936293 M208.9707520185108,197.05400916936293 L230.94648132234337,220.24060733152461 M230.94648132234337,220.24060733152461 L263.117943804238,239.57872082576205 M263.117943804238,239.57872082576205 L303.5479231936709,253.7532484474899 M303.5479231936709,253.7532484474899 L349.7995630250161,261.76069860373366 M349.7995630250161,261.76069860373366 L399.08298178737346,262.97037269493876 M399.08298178737346,262.97037269493876 L448.42317302948527,257.1624213456531 M448.42317302948527,257.1624213456531 L494.8401082339654,244.54141451554614 M494.8401082339654,244.54141451554614 L535.5304367496925,225.72423923854404 M535.5304367496925,225.72423923854404 L568.0396522030965,201.70231161267108 M568.0396522030965,201.70231161267108 L590.4124293906734,173.78130592762747 M590.4124293906734,173.78130592762747 L601.30840876742,143.50083334342298 M601.30840876742,143.50083334342298 L600.0727160740344,112.54019232996882 M600.0727160740344,112.54019232996882 L586.7884942926896,82.61793335715856 M586.7884942926896,82.61793335715856 L562.265075144592,55.387668777405224 M562.265075144592,55.387668777405224 L527.9798189711195,32.34052652946593 M527.9798189711195,32.34052652946593 L485.99671687063795,14.714744362174201 M485.99671687063795,14.714744362174201 L438.8426402544806,3.4219222001941034 M438.8426402544806,3.4219222001941034 L389.35366900029527,-1.0068039324249867 M389.35366900029527,-1.0068039324249867 L340.504067328391,1.5484208474126717 M340.504067328391,1.5484208474126717 L295.22852227932606,10.789009563994227 M295.22852227932606,10.789009563994227 L256.2480458275164,26.01558507293646 M256.2480458275164,26.01558507293646 L225.90855908332585,46.169259124785754 M225.90855908332585,46.169259124785754 L206.04059863419232,69.89377948202059 M206.04059863419232,69.89377948202059 L197.84781498406605,95.61649361225489 M197.84781498406605,95.61649361225489 L201.83138031982858,121.64303432344218 M201.83138031982858,121.64303432344218 L217.7567079907498,146.25938073581545 M217.7567079907498,146.25938073581545 L234.97984664003707,161.37840340614983 M234.97984664003707,161.37840340614983 L256.8332552209152,174.61162799384294 M257.15156154517325,792.7754651393548 L256.1241020226282,773.7197086352159 M256.1241020226282,773.7197086352159 L294.9884013397454,789.0779222589249 M294.9884013397454,789.0779222589249 L340.1898954223405,798.4339371563061 M340.1898954223405,798.4339371563061 L389.00195515279233,801.0751557229207 M389.00195515279233,801.0751557229207 L438.4789797963216,796.6940088393608 M438.4789797963216,796.6940088393608 L485.633246245537,785.4094276726684 M485.633246245537,785.4094276726684 L527.6174514608047,767.7591747253438 M527.6174514608047,767.7591747253438 L561.8987778148701,744.6656663132308 M561.8987778148701,744.6656663132308 L586.4126679220227,717.3788321069125 M586.4126679220227,717.3788321069125 L599.68665278815,687.3998094723709 M599.68665278815,687.3998094723709 L600.9276632203214,656.3904320235754 M600.9276632203214,656.3904320235754 L590.0678424562392,626.0732690577012 M590.0678424562392,626.0732690577012 L567.7670783957007,598.1280164298614 M567.7670783957007,598.1280164298614 L535.3724196696785,574.0900119398792 M535.3724196696785,574.0900119398792 L494.8364447141901,555.2573108779432 M494.8364447141901,555.2573108779432 L448.5993271271416,542.6129617051415 M448.5993271271416,542.6129617051415 L399.4406239559269,536.7697489359294 M399.4406239559269,536.7697489359294 L350.3137478433807,537.9365130921935 M350.3137478433807,537.9365130921935 L304.1702087091346,545.8946993268279 M304.1702087091346,545.8946993268279 L263.78429418662313,560.0229492062648 M263.78429418662313,560.0229492062648 L231.5873835745634,579.3303094433813 M231.5873835745634,579.3303094433813 L209.5204685003048,602.5123434098667 M209.5204685003048,602.5123434098667 L198.91690679100617,628.0294511115687 M198.91690679100617,628.0294511115687 L200.4216842498618,654.2000349440519 M200.4216842498618,654.2000349440519 L213.9515160590271,679.302004568909 M213.9515160590271,679.302004568909 L238.69827695548835,701.676342616136 M238.69827695548835,701.676342616136 L273.1757632041938,719.8268479092459 M273.1757632041938,719.8268479092459 L315.3077529750217,732.5104244517088 M315.3077529750217,732.5104244517088 L362.5526136704721,738.8129899981299 M362.5526136704721,738.8129899981299 L412.0577734169567,738.2061842724253 M412.0577734169567,738.2061842724253 L460.8339359220388,730.5809687133695 M460.8339359220388,730.5809687133695 L505.93766543729936,716.2544302914706 M505.93766543729936,716.2544302914706 L544.6475995564317,695.9472646240819 M544.6475995564317,695.9472646240819 L574.6263756757966,670.7388506673968 M574.6263756757966,670.7388506673968 L594.0752340493375,642.0087664351977 M594.0752340493375,642.0087664351977 L601.8262495091831,611.3444185421778 M601.8262495091831,611.3444185421778 L597.4165676784455,580.4478860602896 M597.4165676784455,580.4478860602896 L581.1186749075675,551.0340811553012 M581.1186749075675,551.0340811553012 L553.9214087930629,524.7271111408975 M553.9214087930629,524.7271111408975 L517.4671040923197,502.9623795733321 M517.4671040923197,502.9623795733321 L473.9507671738977,486.9008904353751 M473.9507671738977,486.9008904353751 L425.9883554670054,477.360545731705 M425.9883554670054,477.360545731705 L376.46125294439446,474.7680774505784 M376.46125294439446,474.7680774505784 L328.34556937013616,479.13405204246686 M328.34556937013616,479.13405204246686 L284.5346623443409,490.0520946684689 M284.5346623443409,490.0520946684689 L247.66513577153347,506.72261340139295 M247.66513577153347,506.72261340139295 L219.95671500650548,527.9996624946143 M219.95671500650548,527.9996624946143 L203.07814840290064,552.4592749515841 M203.07814840290064,552.4592749515841 L198.05194196039335,578.4853178301332 M198.05194196039335,578.4853178301332 L205.1936743200847,604.3655774389324 M205.1936743200847,604.3655774389324 L224.0739031857339,628.3948507638268 M224.0739031857339,628.3948507638268 L253.5626633713811,648.9769873161301 M253.5626633713811,648.9769873161301 L291.8887589489435,664.7220942603296 M291.8887589489435,664.7220942603296 L336.74208412993255,674.5319776654444 M336.74208412993255,674.5319776654444 L385.4144900963993,677.6672547612867 M385.4144900963993,677.6672547612867 L434.9661678825523,673.7922993018956 M434.9661678825523,673.7922993018956 L482.4053284502434,662.9955416666565 M482.4053284502434,662.9955416666565 L524.8696014850503,645.7839328876038 M524.8696014850503,645.7839328876038 L559.7986638304128,623.0521462895927 M559.7986638304128,623.0521462895927 L585.0881420536836,596.0281000751254 M585.0881420536836,596.0281000751254 L599.2164894236955,566.1981363085853 M599.2164894236955,566.1981363085853 L601.3372341219416,535.2163139973342 M601.3372341219416,535.2163139973342 L591.3305470236581,504.8035403652839 M591.3305470236581,504.8035403652839 L569.8087153550405,476.6435315643698 M569.8087153550405,476.6435315643698 L538.0717772406456,452.28350236757865 M538.0717772406456,452.28350236757865 L498.0289285409807,433.04299803319327 M498.0289285409807,433.04299803319327 L452.0939125994942,419.9282308355175 M452.0939125994942,419.9282308355175 L403.02694412290896,413.58148702014705 M403.02694412290896,413.58148702014705 L353.7753074052928,414.2396202420909 M353.7753074052928,414.2396202420909 L307.29896992108195,421.71809751048943 M307.29896992108195,421.71809751048943 L266.3929120011846,435.42250276390826 M266.3929120011846,435.42250276390826 L233.51906921338303,454.3848009105318 M233.51906921338303,454.3848009105318 L210.658347288138,477.3213729773531 M210.658347288138,477.3213729773531 L199.1915269891115,502.70906421082213 M199.1915269891115,502.70906421082213 L199.81575748436762,528.8755143792213 M199.81575748436762,528.8755143792213 L212.5012468009686,554.0986957954862 M212.5012468009686,554.0986957954862 L236.49115321194924,576.7106098090946 M236.49115321194924,576.7106098090946 L270.34481600573315,595.1991552070585 M270.34481600573315,595.1991552070585 L312.0231920148073,608.3012645793077 M312.0231920148073,608.3012645793077 L359.01177738016287,615.0802320906781 M359.01177738016287,615.0802320906781 L408.4748602301729,614.9791031539156 M408.4748602301729,614.9791031539156 L457.4260515935102,607.8551186885967 M457.4260515935102,607.8551186885967 L502.9106475339303,593.9968614658486 M502.9106475339303,593.9968614658486 L542.1833057643541,574.0952512810848 M542.1833057643541,574.0952512810848 L572.8755296175777,549.2061401225005 M572.8755296175777,549.2061401225005 L593.1399121544371,520.6874788906578 M593.1399121544371,520.6874788906578 L601.7610584528638,490.1156925257126 M601.7610584528638,490.1156925257126 L598.226890122714,459.18873171071607 M598.226890122714,459.18873171071607 L582.7573811446443,429.6229841249776 M582.7573811446443,429.6229841249776 L556.2895716039206,403.0503444359476 M556.2895716039206,403.0503444359476 L520.4201886849272,380.92132423171233 M520.4201886849272,380.92132423171233 L477.3093119672483,364.4191004225175 M477.3093119672483,364.4191004225175 L429.55061786731284,354.3892342504786 M429.55061786731284,354.3892342504786 L380.01538404924713,351.2886109928484 M380.01538404924713,351.2886109928484 L331.67985700900465,355.15738771285174 M331.67985700900465,355.15738771285174 L287.4473723721528,365.61675120943005 M287.4473723721528,365.61675120943005 L249.97860615862146,381.89503543364197 M249.97860615862146,381.89503543364197 L221.5324138004822,402.8717752133002 M221.5324138004822,402.8717752133002 L203.81985705253484,427.13939903738105 M203.81985705253484,427.13939903738105 L197.91565106144586,453.09410569178385 M197.91565106144586,453.09410569178385 L204.18515896591344,479.0283141011776 M204.18515896591344,479.0283141011776 L222.25779980683131,503.2328957584788 M222.25779980683131,503.2328957584788 L251.04881625760476,524.1007768351377 M251.04881625760476,524.1007768351377 L288.82540141962085,540.2250735958368 M288.82540141962085,540.2250735958368 L333.3113304783986,550.4849255987093 M333.3113304783986,550.4849255987093 L381.82391022017123,554.1137468030638 M381.82391022017123,554.1137468030638 L431.4353587836161,550.7456415979982 M431.4353587836161,550.7456415979982 L479.1496236102673,540.4380619618795 M479.1496236102673,540.4380619618795 L522.0846401508105,523.6680945738268 M522.0846401508105,523.6680945738268 L557.648975454078,501.30379382162107 M557.648975454078,501.30379382162107 L583.7010120411828,474.55115158298577 M583.7010120411828,474.55115158298577 L598.6779862864659,444.8803589821731 M598.6779862864659,444.8803589821731 L601.6818226775925,413.9350341789549 M601.6818226775925,413.9350341789549 L592.535176110851,383.43383331704615 M592.535176110851,383.43383331704615 L571.8015432165013,355.0662666316618 M571.8015432165013,355.0662666316618 L540.731677153574,330.3923093450276 M540.731677153574,330.3923093450276 L501.19618758802017,310.74879743892666 M501.19618758802017,310.74879743892666 L455.5750028153803,297.16911609781914 M455.5750028153803,297.16911609781914 L406.61284696996427,290.32200514507747 M406.61284696996427,290.32200514507747 L357.25300818387143,290.4724366066788 M357.25300818387143,290.4724366066788 L310.4610201670138,297.46620800971766 M310.4610201670138,297.46620800971766 L269.048380384139,310.73907550491367 M269.048380384139,310.73907550491367 L235.50596147565327,329.3498470524431 M235.50596147565327,329.3498470524431 L211.85552025360028,352.0358095125766 M211.85552025360028,352.0358095125766 L199.52750334219652,377.2877354184928 M199.52750334219652,377.2877354184928 L199.27226777035085,403.44032093628533 M199.27226777035085,403.44032093628533 L211.1114592753705,428.77269468898623 M211.1114592753705,428.77269468898623 L234.3355890875373,451.6122423732694 M234.3355890875373,451.6122423732694 L267.552223608671,470.4332583232607 M267.552223608671,470.4332583232607 L308.7633552052441,483.95102359349244 M308.7633552052441,483.95102359349244 L355.4805804319366,491.2044710963306 M355.4805804319366,491.2044710963306 L404.8859149732245,491.60681771610643 M404.8859149732245,491.60681771610643 L453.99718225653186,484.9860732181816 M453.99718225653186,484.9860732181816 L499.8485302256032,471.59685696598723 M499.8485302256032,471.59685696598723 L539.6718467820766,452.10395300686014 M539.6718467820766,452.10395300686014 L571.06582258705,427.54050615746337 M571.06582258705,427.54050615746337 L592.1411047392301,399.24426061376107 M592.1411047392301,399.24426061376107 L601.6333293690277,368.77638534799735 M601.6333293690277,368.77638534799735 L598.9775545514793,337.82736793952927 M598.9775545514793,337.82736793952927 L584.340430802686,308.11544465321646 M584.340430802686,308.11544465321646 L558.6088395624332,281.2831065778654 M558.6088395624332,281.2831065778654 L523.3357037592764,258.79775805096006 M523.3357037592764,258.79775805096006 L480.6461921280026,241.8629724075754 M480.6461921280026,241.8629724075754 L433.10906202473103,231.3472679144815 M433.10906202473103,231.3472679144815 L383.58083308649697,227.73731197333518 M383.58083308649697,227.73731197333518 L335.0374431269976,231.10555920199374 M335.0374431269976,231.10555920199374 L290.3953571319216,241.10176424469722 M290.3953571319216,241.10176424469722 L252.33984310570722,256.9828719250711 M252.33984310570722,256.9828719250711 L223.16286536920586,277.65168888249036 M223.16286536920586,277.65168888249036 L204.62437232887126,301.720867423064 M204.62437232887126,301.720867423064 L197.8459555866427,327.59654699742407 M197.8459555866427,327.59654699742407 L203.2426699561147,353.5748505360417 M203.2426699561147,353.5748505360417 L220.49686729504387,377.9445599409995 M220.49686729504387,377.9445599409995 L248.5755287177832,399.08998688101843 M248.5755287177832,399.08998688101843 L285.7906378780145,415.5881441451771 M285.7906378780145,415.5881441451771 L329.8996362912924,426.29491937477644 M329.8996362912924,426.29491937477644 L378.2406647555832,430.41519626827903 M378.2406647555832,430.41519626827903 L427.8945952987285,427.5525762012194 M427.8945952987285,427.5525762012194 L475.86358479225555,417.73477101210943 M475.86358479225555,417.73477101210943 L519.253512344284,401.41123796384096 M519.253512344284,401.41123796384096 L555.4451301823942,379.42131035801276 M555.4451301823942,379.42131035801276 L582.2566415669762,352.94760457530015 M582.2566415669762,352.94760457530015 L598.0802029301922,323.4444578920842 M598.0802029301922,323.4444578920842 L601.9656463373972,292.5446689761965 M601.9656463373972,292.5446689761965 L593.683944258177,261.9638455695182 M593.683944258177,261.9638455695182 L573.7412943239631,233.3971302763076 M573.7412943239631,233.3971302763076 L543.3454624970842,208.4166934204153 M543.3454624970842,208.4166934204153 L504.32996094975647,188.377440523361 M504.32996094975647,188.377440523361 L459.04251251958954,174.33603109065572 M459.04251251958954,174.33603109065572 L410.204679442073,166.98879096688134 M410.204679442073,166.98879096688134 L360.7504429777154,166.63074656559942 M360.7504429777154,166.63074656559942 L313.65206402425235,173.1382835302365 M313.65206402425235,173.1382835302365 L271.74254014087296,185.9763016500204 M271.74254014087296,185.9763016500204 L237.54446996154334,204.22938014797802 M237.54446996154334,204.22938014797802 L213.11683780227577,226.65582896543174 M213.11683780227577,226.65582896543174 L199.93168391284635,251.76190108863432 M199.93168391284635,251.76190108863432 L198.79314822465815,277.89198598906256 M198.79314822465815,277.89198598906256 L209.7783827279602,303.3264567319601 M209.7783827279602,303.3264567319601 L232.22784462238883,326.38604123487505 M232.22784462238883,326.38604123487505 L264.796956748347,345.5320220729489 M264.796956748347,345.5320220729489 L305.52696225195115,359.4606245642546 M305.52696225195115,359.4606245642546 L351.9610683435007,367.1830940393801 M351.9610683435007,367.1830940393801 L401.29501016848457,368.0859832578319 M401.29501016848457,368.0859832578319 L450.54921460225626,361.9683982432348 M450.54921460225626,361.9683982432348 L496.75041915439294,349.0540469772207 M496.75041915439294,349.0540469772207 L537.1116131414087,329.9775933176523 M537.1116131414087,329.9775933176523 L569.1998048811037,305.7460120737386 M569.1998048811037,305.7460120737386 L591.082415369531,277.67731600984337 M591.082415369531,277.67731600984337 L601.4439108679687,247.32017036348094 M601.4439108679687,247.32017036348094 L599.6658140681825,216.3593641440326 M599.6658140681825,216.3593641440326 L585.8640213935562,186.51328254667277 M585.8640213935562,186.51328254667277 L560.8788134390312,159.4304346189941 M560.8788134390312,159.4304346189941 L526.2150820478798,136.5937452805183 M526.2150820478798,136.5937452805183 L483.9608563248259,119.22873544954314 M483.9608563248259,119.22873544954314 L436.66030752913167,108.22940784451242 M436.66030752913167,108.22940784451242 L387.1547509895717,104.11146468790332 M387.1547509895717,104.11146468790332 L338.41822753289813,106.97740630517325 M338.41822753289813,106.97740630517325 L293.38030998028444,116.5095952908058 M293.38030998028444,116.5095952908058 L254.7501118113334,131.99003417019287 M254.7501118113334,131.99003417019287 L224.853308315594,152.34373008414767 M224.853308315594,152.34373008414767 L205.4924454270698,176.20315795299257 M205.4924454270698,176.20315795299257 L197.83845101675053,201.98882916714325 M197.83845101675053,201.98882916714325 L202.35943824012824,228.0033753149749 M202.35943824012824,228.0033753149749 L218.79098588272223,252.53252886433523 M218.79098588272223,252.53252886433523 L246.14989509160063,273.9492441956668 M246.14989509160063,273.9492441956668 L282.79136690568265,290.8129371188619 M282.79136690568265,290.8129371188619 L326.5069351113533,301.9588229071943 M326.5069351113533,301.9588229071943 L374.6585690230616,306.56786386548026 M374.6585690230616,306.56786386548026 L424.3403241304135,304.2121917825036 M424.3403241304135,304.2121917825036 L472.55230654180895,294.88787262515564 M472.55230654180895,294.88787262515564 L516.38469656898,279.01503667560667 M516.38469656898,279.01503667560667 L553.1921656048687,257.40537829837774 M553.1921656048687,257.40537829837774 L580.7559740073422,231.21805976496884 M580.7559740073422,231.21805976496884 L597.4185841618863,201.88901439112578 M597.4185841618863,201.88901439112578 L602.1823866875151,171.04273268371904 M602.1823866875151,171.04273268371904 L594.7678845601572,140.39236089425356 M594.7678845601572,140.39236089425356 L575.6283596440155,111.63648984674228 M575.6283596440155,111.63648984674228 L545.9210666603465,86.35728338831404 M545.9210666603465,86.35728338831404 L507.43692844582887,65.92708972531858 M507.43692844582887,65.92708972531858 L462.49264590365095,51.42669619992728 M462.49264590365095,51.42669619992728 L413.79154797740654,43.5812728920223 M413.79154797740654,43.5812728920223 L364.2609610568493,42.715969357866015 M364.2609610568493,42.715969357866015 L316.87635991768116,48.73622351670633 M316.87635991768116,48.73622351670633 L274.4843500258728,61.134009487188564 M274.4843500258728,61.134009487188564 L239.6378559820227,79.02246324133034 M239.6378559820227,79.02246324133034 L214.43542581905498,101.1816647743832 M214.43542581905498,101.1816647743832 L200.39578605941935,126.13342693639117 M200.39578605941935,126.13342693639117 L198.3739950827204,152.23196666956662 M198.3739950827204,152.23196666956662 L208.50092966274065,177.75977919379616 M208.50092966274065,177.75977919379616 L230.17259472398686,201.03108071538543 M230.17259472398686,201.03108071538543 L262.0866256161981,220.49437377235648 M262.0866256161981,220.49437377235648 L302.3213798495066,234.82694230651325 M302.3213798495066,234.82694230651325 L348.4518676363534,243.01589505258798 M348.4518676363534,243.01589505258798 L397.69551269679647,244.41932240424995 M397.69551269679647,244.41932240424995 L447.07972015138023,238.80579042071793 M447.07972015138023,238.80579042071793 L493.621738519309,226.36802525272435 M493.621738519309,226.36802525272435 L534.5106033881582,207.71180670110274 M534.5106033881582,207.71180670110274 L567.2797297133593,183.81882084750112 M567.2797297133593,183.81882084750112 L589.9580321129623,155.98694000804522 M589.9580321129623,155.98694000804522 L601.1866494693674,125.75060537883371 M601.1866494693674,125.75060537883371 L600.2905773639008,94.78626916491305 M600.2905773639008,94.78626916491305 L587.3325889190917,64.81286691457154 M587.3325889190917,64.81286691457154 L563.1023609451589,37.48728169745107 M563.1023609451589,37.48728169745107 L529.0597096241202,14.306214793963477 M529.0597096241202,14.306214793963477 L487.25414367425367,-3.484050854166526 M487.25414367425367,-3.484050854166526 L440.2019385417699,-14.961909792316305 M440.2019385417699,-14.961909792316305 L390.733148310167,-19.585199214398813 M390.733148310167,-19.585199214398813 L341.82083237840413,-17.222408584133632 M341.82083237840413,-17.222408584133632 L296.403448568005,-8.160685189955643 M296.403448568005,-8.160685189955643 L257.2105155644335,6.911485230863832 M257.2105155644335,6.911485230863832 L226.60068145491854,26.944231316387913 M226.60068145491854,26.944231316387913 L206.4206784650744,50.58873185744494 M206.4206784650744,50.58873185744494 L197.89287652189597,76.27710826210728 M197.89287652189597,76.27710826210728 L201.53863050232857,102.31709757035105 M201.53863050232857,102.31709757035105 L217.14368099852416,126.99382431627635 M217.14368099852416,126.99382431627635 L234.15104832467995,142.16619095812644 M234.15104832467995,142.16619095812644 L255.8035754252754,155.47468739172805 M256.8332552209152,174.61162799384294 L255.8035754252754,155.47468739172805 M256.1241020226282,773.7197086352159 L270.52763120999344,775.229090834545 M270.52763120999344,775.229090834545 L303.68083238398003,788.2062675545646 M303.68083238398003,788.2062675545646 L342.050761944948,796.3487778556938 M342.050761944948,796.3487778556938 L383.5599037946556,799.0903280239149 M383.5599037946556,799.0903280239149 L425.9604527656686,796.1565368168464 M425.9604527656686,796.1565368168464 L466.9547535857059,787.5822310822007 M466.9547535857059,787.5822310822007 L504.32108936235755,773.7094843682821 M504.32108936235755,773.7094843682821 L536.0355261602649,755.1679934396309 M536.0355261602649,755.1679934396309 L560.3824619806531,732.8398675677465 M560.3824619806531,732.8398675677465 L576.0474251533163,707.8111903842104 M576.0474251533163,707.8111903842104 L582.1873693242967,681.3130188486159 M582.1873693242967,681.3130188486159 L578.4751142187433,654.6549656550982 M578.4751142187433,654.6549656550982 L565.1158961377794,629.1545468312593 M565.1158961377794,629.1545468312593 L542.8355000719364,606.0659173422459 M542.8355000719364,606.0659173422459 L512.8406189269463,586.5117263177891 M512.8406189269463,586.5117263177891 L476.7534812484569,571.4220919351083 M476.7534812484569,571.4220919351083 L436.52376170842484,561.4849820002908 M436.52376170842484,561.4849820002908 L394.3222218882866,557.1125832934422 M394.3222218882866,557.1125832934422 L352.42556041941685,558.4194540713277 M352.42556041941685,558.4194540713277 L313.09367708699773,565.208824572121 M313.09367708699773,565.208824572121 L278.4498509329129,576.992586633091 M278.4498509329129,576.992586633091 L250.3664548209944,593.0138935390937 M250.3664548209944,593.0138935390937 L230.3630191332461,612.2856980467016 M230.3630191332461,612.2856980467016 L219.52380815212382,633.64386391462 M219.52380815212382,633.64386391462 L218.43900912547957,655.8105268602209 M218.43900912547957,655.8105268602209 L227.17231567925984,677.4634292199094 M227.17231567925984,677.4634292199094 L245.25653344341902,697.3073478601676 M245.25653344341902,697.3073478601676 L271.71766998395583,714.143963242639 M271.71766998395583,714.143963242639 L305.1264733708892,726.9365337313053 M305.1264733708892,726.9365337313053 L343.67514867162987,734.8664022397599 M343.67514867162987,734.8664022397599 L385.27539001345366,737.3781345410914 M385.27539001345366,737.3781345410914 L427.67265193713763,734.2107565588968 M427.67265193713763,734.2107565588968 L468.5698357776346,725.412832909804 M468.5698357776346,725.412832909804 L505.75252480814527,711.3393320096862 M505.75252480814527,711.3393320096862 L537.2062791938517,692.6290157231441 M537.2062791938517,692.6290157231441 L561.2279668318394,670.1716431835641 M561.2279668318394,670.1716431835641 L576.5245470674123,645.0623639761212 M576.5245470674123,645.0623639761212 L582.2707955782697,618.5364696727345 M582.2707955782697,618.5364696727345 L578.1587587373025,591.9047475762435 M578.1587587373025,591.9047475762435 L564.41557393912,566.4830135302093 M564.41557393912,566.4830135302093 L541.7894656340357,543.5206680822545 M541.7894656340357,543.5206680822545 L511.5070180547054,524.1331049915027 M511.5070180547054,524.1331049915027 L475.20552559493547,509.2418168970826 M475.20552559493547,509.2418168970826 L434.84452837002704,499.5253078661135 M434.84452837002704,499.5253078661135 L392.60119213502696,495.38318802846175 M392.60119213502696,495.38318802846175 L350.75431738089503,496.9151674521187 M350.75431738089503,496.9151674521187 L311.56269201770715,503.9156753110455 M311.56269201770715,503.9156753110455 L277.14333281735463,515.8846610168603 M277.14333281735463,515.8846610168603 L249.35642962600275,532.0538656986521 M249.35642962600275,532.0538656986521 L229.7036930797812,551.4276812922632 M229.7036930797812,551.4276812922632 L219.24829008807794,572.8367777237067 M219.24829008807794,572.8367777237067 L218.56345859472924,595.0015603622494 M218.56345859472924,595.0015603622494 L227.69214922054252,616.5998307304217 M227.69214922054252,616.5998307304217 L246.14148211732157,636.339180154702 M246.14148211732157,636.339180154702 L272.9195791373882,653.0259076642237 M272.9195791373882,653.0259076642237 L306.5814422921142,665.6307795248127 M306.5814422921142,665.6307795248127 L345.30531232556484,673.3456061851182 M345.30531232556484,673.3456061851182 L386.9925553506308,675.6275563531747 M386.9925553506308,675.6275563531747 L429.3834161312029,672.2287554536426 M429.3834161312029,672.2287554536426 L470.180871159151,663.2095669190683 M470.180871159151,663.2095669190683 L507.17555379738076,648.9353131315524 M507.17555379738076,648.9353131315524 L538.3653287317868,630.056396778942 M538.3653287317868,630.056396778942 L562.0631868411402,607.47270515744 M562.0631868411402,607.47270515744 L576.988520081694,582.2845764129122 M576.988520081694,582.2845764129122 L582.3366587665389,555.7325100434917 M582.3366587665389,555.7325100434917 L577.8230624221563,529.129326014627 M577.8230624221563,529.129326014627 L563.6984595042959,503.78855419570823 M563.6984595042959,503.78855419570823 L540.732335362282,480.9540429455643 M540.732335362282,480.9540429455643 L510.1647225100483,461.73552548510577 M510.1647225100483,461.73552548510577 L473.6491271234007,447.0446292708393 M473.6491271234007,447.0446292708393 L433.1590682089222,437.54788595977277 M433.1590682089222,437.54788595977277 L390.8782493307221,433.6345582139684 M390.8782493307221,433.6345582139684 L349.0872090693111,435.39280607078484 M349.0872090693111,435.39280607078484 L310.041324226824,442.604302462041 M310.041324226824,442.604302462041 L275.8490406319917,454.75652203416985 M275.8490406319917,454.75652203416985 L248.3580670551568,471.070780208913 M248.3580670551568,471.070780208913 L229.05552140659512,490.5440908781652 M229.05552140659512,490.5440908781652 L218.98777164773273,512.0025943529636 M218.98777164773273,512.0025943529636 L218.70361225824394,534.1639921167937 M218.70361225824394,534.1639921167937 L228.2238396608912,555.706191326725 M228.2238396608912,555.706191326725 L247.03889176131648,575.3386012777657 M247.03889176131648,575.3386012777657 L274.1350177092525,591.8727472505678 M274.1350177092525,591.8727472505678 L308.0479323558649,604.2879083904958 M308.0479323558649,604.2879083904958 L346.9418424981201,611.7874713170801 M346.9418424981201,611.7874713170801 L388.7099722962284,613.8410244645805 M388.7099722962284,613.8410244645805 L431.08991968233755,610.209741388002 M431.08991968233755,610.209741388002 L471.785094430957,600.9683906057938 M471.785094430957,600.9683906057938 L508.5912272236085,586.4954068027472 M508.5912272236085,586.4954068027472 L539.5148105648948,567.450582004901 M539.5148105648948,567.450582004901 L562.882777008793,544.7421729617611 M562.882777008793,544.7421729617611 L577.4335943089734,519.4775139162288 M577.4335943089734,519.4775139162288 L582.3846614697369,492.90155601797517 M582.3846614697369,492.90155601797517 L577.4734394758899,466.32850593998273 M577.4734394758899,466.32850593998273 L562.970234448879,441.07033734721995 M562.970234448879,441.07033734721995 L539.6625938123634,418.3664207379623 M539.6625938123634,418.3664207379623 L508.8122447807459,399.31735584146617 M508.8122447807459,399.31735584146617 L472.0869262987353,384.8264443905923 M472.0869262987353,384.8264443905923 L431.470304959732,375.5514961642656 M431.470304959732,375.5514961642656 L389.1549387063359,371.86905327184894 M389.1549387063359,371.86905327184894 L347.4238108694447,373.8536650953004 M347.4238108694447,373.8536650953004 L308.5274698432762,381.2737586620784 M308.5274698432762,381.2737586620784 L274.5650662853232,393.6058395071657 M274.5650662853232,393.6058395071657 L247.3751263205296,410.06448655182055 M247.3751263205296,410.06448655182055 L228.42521352396378,429.63681643229074 M228.42521352396378,429.63681643229074 L218.74285982011372,451.1429166416318 M218.74285982011372,451.1429166416318 L218.85874772387047,473.29813745617173 M218.85874772387047,473.29813745617173 L228.77270622425462,494.78071127172916 M228.77270622425462,494.78071127172916 L247.9524670525824,514.3034910000717 M247.9524670525824,514.3034910000717 L275.3628015501271,530.6842647102487 M275.3628015501271,530.6842647102487 L309.5220218837947,542.9105032550981 M309.5220218837947,542.9105032550981 L348.58220435400165,550.1947063957034 M348.58220435400165,550.1947063957034 L390.4289352396897,552.0173234748246 M390.4289352396897,552.0173234748246 L432.7953990537283,548.1550777564551 M432.7953990537283,548.1550777564551 L473.38530839232453,538.6932493586905 M473.38530839232453,538.6932493586905 L509.9982579643563,524.0209584790548 M509.9982579643563,524.0209584790548 L540.6508735839199,504.8101865208663 M540.6508735839199,504.8101865208663 L563.6860119560147,481.9790034222368 M563.6860119560147,481.9790034222368 L577.8626891543132,456.6411972668909 M577.8626891543132,456.6411972668909 L582.4182663118692,430.04468052232426 M582.4182663118692,430.04468052232426 L577.1062325942883,403.50403387910274 M577.1062325942883,403.50403387910274 L562.2239941246684,378.32945461682704 M562.2239941246684,378.32945461682704 L538.5791484627985,355.75625338953546 M538.5791484627985,355.75625338953546 L507.44951283830426,336.878741372749 M507.44951283830426,336.878741372749 L470.5174085536577,322.5909227170299 M470.5174085536577,322.5909227170299 L429.77830671318554,313.5386990399197 M429.77830671318554,313.5386990399197 L387.4319665176983,310.08568351273374 M387.4319665176983,310.08568351273374 L345.76331758218544,312.294093074901 M345.76331758218544,312.294093074901 L307.0199730383937,319.9217189779546 M307.0199730383937,319.9217189779546 L273.29241793218836,332.43451480790264 M273.29241793218836,332.43451480790264 L246.40265084010875,349.0348882565202 M246.40265084010875,349.0348882565202 L227.8064190838077,368.70401964644185 M227.8064190838077,368.70401964644185 L218.51387320141941,390.25632912314745 M218.51387320141941,390.25632912314745 L219.03300612635536,412.40343393969346 M219.03300612635536,412.40343393969346 L229.33993927772485,433.82396511702365 M229.33993927772485,433.82396511702365 L248.87957473522215,453.23520665247236 M248.87957473522215,453.23520665247236 L276.5996023770918,469.4608750855531 M276.5996023770918,469.4608750855531 L311.00482109229614,481.4954066876853 M311.00482109229614,481.4954066876853 L350.2300431599171,488.56391132445464 M350.2300431599171,488.56391132445464 L392.15169624858584,490.15746698622434 M392.15169624858584,490.15746698622434 L434.4992598694767,486.0638511216326 M434.4992598694767,486.0638511216326 L474.9777870250929,476.38090761243063 M474.9777870250929,476.38090761243063 L511.3936258622962,461.51067814518586 M511.3936258622962,461.51067814518586 L541.774726577204,442.1365986067991 M541.774726577204,442.1365986067991 L564.4781849510426,419.1854178784406 M564.4781849510426,419.1854178784406 L578.2788614986273,393.7764145208441 M578.2788614986273,393.7764145208441 L582.4348048103724,367.1607382285777 M582.4348048103724,367.1607382285777 L576.7261433004492,340.6539233070605 M576.7261433004492,340.6539233070605 L561.4659089976533,315.56485269159083 M561.4659089976533,315.56485269159083 L537.4823835389533,293.125050944763 M537.4823835389533,293.125050944763 L506.0740655899032,274.4214869949123 M506.0740655899032,274.4214869949123 L468.93923103752854,260.33775328777585 M468.93923103752854,260.33775328777585 L428.0837201319962,251.5072990169988 M428.0837201319962,251.5072990169988 L385.71160013442295,248.2834197251388 M385.71160013442295,248.2834197251388 L344.10890158157724,250.71727010390967 M344.10890158157724,250.71727010390967 L305.5196891485529,258.5515695703267 M305.5196891485529,258.5515695703267 L272.02769658834995,271.24205037054213 M272.02769658834995,271.24205037054213 L245.44343946818233,287.98249780771073 M245.44343946818233,287.98249780771073 L227.20570895955828,307.7463767932078 M227.20570895955828,307.7463767932078 L218.30363394979076,329.34244828513204 M218.30363394979076,329.34244828513204 L219.22292656126567,351.47957260530126 M219.22292656126567,351.47957260530126 L229.91899275412578,372.8366683959774 M229.91899275412578,372.8366683959774 L249.81837746434135,392.1340501263878 M249.81837746434135,392.1340501263878 L277.8485735996279,408.20249573835747 M277.8485735996279,408.20249573835747 L312.4949299099373,420.04634011400015 M312.4949299099373,420.04634011400015 L351.8821283424999,426.8979153956465 M351.8821283424999,426.8979153956465 L393.87615239230473,428.2600234012301 M393.87615239230473,428.2600234012301 L436.20110466171485,423.93403519902 M436.20110466171485,423.93403519902 L476.5640877747627,414.03136503616895 M476.5640877747627,414.03136503616895 L512.7797533069528,398.9665793458346 M512.7797533069528,398.9665793458346 L542.8852513793607,379.43104725075 M542.8852513793607,379.43104725075 L565.2527827062246,356.3601083547954 M565.2527827062246,356.3601083547954 L578.6780962153072,330.8811079746614 M578.6780962153072,330.8811079746614 L582.4370185323205,304.2487281028259 M582.4370185323205,304.2487281028259 L576.3295060299013,277.7791018070654 M576.3295060299013,277.7791018070654 L560.6908629531259,252.77880731670157 M560.6908629531259,252.77880731670157 L536.3715697269353,230.47398936222095 M536.3715697269353,230.47398936222095 L504.68917444632456,211.94401106263632 M504.68917444632456,211.94401106263632 L467.3559569476503,198.06373235773202 M467.3559569476503,198.06373235773202 L426.38674056012394,189.45679916502138 M426.38674056012394,189.45679916502138 L383.9913627728024,186.46283492414898 M383.9913627728024,186.46283492414898 L342.4570577667468,189.1195023031753 M342.4570577667468,189.1195023031753 L304.02605126248136,197.16044843010633 M304.02605126248136,197.16044843010633 L270.7745619162063,210.029194082425 M270.7745619162063,210.029194082425 L244.4997111583313,226.9086164188427 M244.4997111583313,226.9086164188427 L226.6215205992904,246.7643177570797 M226.6215205992904,246.7643177570797 L218.10801204519754,268.40056465573355 M218.10801204519754,268.40056465573355 L219.42910852584347,290.5250007330726 M219.42910852584347,290.5250007330726 L230.51656365176467,311.81708680400646 M230.51656365176467,311.81708680400646 L250.77303212291687,331.00036722807454 M250.77303212291687,331.00036722807454 L279.10882367213696,346.9106667695887 M279.10882367213696,346.9106667695887 L313.9937616671792,358.5605127152887 M313.9937616671792,358.5605127152887 L353.53914640341316,365.1932175150324 M353.53914640341316,365.1932175150324 L395.60155150771806,366.3244370002138 M395.60155150771806,366.3244370002138 L437.9009962839673,361.7684338853089 M437.9009962839673,361.7684338853089 L478.14563741484903,351.6481082952274 M478.14563741484903,351.6481082952274 L514.1563529716465,336.3882667578733 M514.1563529716465,336.3882667578733 L543.9844722022945,316.6924056683546 M543.9844722022945,316.6924056683546 L566.016856190898,293.50444456518926 M566.016856190898,293.50444456518926 L579.0632352418922,267.9570278262788 M579.0632352418922,267.9570278262788 L582.4209908508282,241.3095981745248 M582.4209908508282,241.3095981745248 L575.9136705439129,214.87945480413256 M575.9136705439129,214.87945480413256 L559.9000132826766,189.9700772721098 M559.9000132826766,189.9700772721098 L535.2506778562627,167.80172824638333 M535.2506778562627,167.80172824638333 L503.2955894783021,149.44810291855228 M503.2955894783021,149.44810291855228 L465.76447812573747,135.77278150630673 M465.76447812573747,135.77278150630673 L424.6842567501907,127.38803270706046 M424.6842567501907,127.38803270706046 L382.2703176009428,124.62308013850344 M382.2703176009428,124.62308013850344 L340.8105901828647,127.50369748121716 M340.8105901828647,127.50369748121716 L302.5428315330414,135.75070850039816 M302.5428315330414,135.75070850039816 L269.5337522286359,148.79550238394447 M269.5337522286359,148.79550238394447 L243.567399245942,165.81105074938299 M243.567399245942,165.81105074938299 L226.04886256602282,185.75619648501407 M226.04886256602282,185.75619648501407 L217.9284707562714,207.43124595823028 M217.9284707562714,207.43124595823028 L219.64997917629285,229.54149139631522 M219.64997917629285,229.54149139631522 L231.12583060019816,250.76693994861213 M231.12583060019816,250.76693994861213 L251.74052423112414,269.8336044199409 M251.74052423112414,269.8336044199409 L280.3825021038365,285.5831373228704 M280.3825021038365,285.5831373228704 L315.5032879465115,297.03730908288406 M315.5032879465115,297.03730908288406 L355.2012721020126,303.4513308828339 M355.2012721020126,303.4513308828339 L397.3261769506919,304.35294128793134 M397.3261769506919,304.35294128793134 L439.5958946954277,299.5653666162492 M439.5958946954277,299.5653666162492 L479.72015511434114,289.22705521876793 M479.72015511434114,289.22705521876793 L515.5255010648259,273.7746160461275 M515.5255010648259,273.7746160461275 L545.0728841043816,253.9207529084057 M545.0728841043816,253.9207529084057 L566.7642888795303,230.6175651698239 M566.7642888795303,230.6175651698239 L579.429332279058,205.0041136011214 M579.429332279058,205.0041136011214 L582.3877373275877,178.3438115287626 M582.3877373275877,178.3438115287626 L575.4847262745174,151.9546000296871 M575.4847262745174,151.9546000296871 L559.0980793664721,127.13796033768301 M559.0980793664721,127.13796033768301 L534.1168493920587,105.10890783581328 M534.1168493920587,105.10890783581328 L501.89286311830807,86.93118440190915 M501.89286311830807,86.93118440190915 L464.1677666645213,73.46099053370887 M464.1677666645213,73.46099053370887 L422.9789796952171,65.30070399439273 M422.9789796952171,65.30070399439273 L380.54966799189066,62.766581587024234 M380.54966799189066,62.766581587024234 L339.1687050090618,65.87072787266601 M339.1687050090618,65.87072787266601 L301.0677588904372,74.32098205475347 M301.0677588904372,74.32098205475347 L268.30407783993894,87.53881225973441 M268.30407783993894,87.53881225973441 L242.6514237030194,104.69013605325279 M242.6514237030194,104.69013605325279 L225.49396419445307,124.72407503442321 M225.49396419445307,124.72407503442321 L217.76390307921716,146.4357959262899 M217.76390307921716,146.4357959262899 L219.88641006080982,168.52891957099885 M219.88641006080982,168.52891957099885 L231.75239349065026,189.68425813775295 M231.75239349065026,189.68425813775295 L252.7235958349993,208.63192514419183 M252.7235958349993,208.63192514419183 L281.66759749851946,224.22031759499683 M281.66759749851946,224.22031759499683 L317.0195308585312,235.479566121493 M317.0195308585312,235.479566121493 L356.86670135550264,241.67436254475828 M356.86670135550264,241.67436254475828 L399.0517834300118,242.3438589326804 M399.0517834300118,242.3438589326804 L441.28932069047454,237.32720212653123 M441.28932069047454,237.32720212653123 L481.28982758333007,226.77188548127248 M481.28982758333007,226.77188548127248 L516.8849908831791,211.12626503735976 M516.8849908831791,211.12626503735976 L546.147073615405,191.1147153499109 M546.147073615405,191.1147153499109 L567.4951231187742,167.69848424592135 M567.4951231187742,167.69848424592135 L579.779890666104,142.0226095160575 M579.779890666104,142.0226095160575 L582.3396278192622,115.35246817402128 M582.3396278192622,115.35246817402128 L575.0376667184207,89.00638088582662 M575.0376667184207,89.00638088582662 L558.278661896768,64.28317457065242 M558.278661896768,64.28317457065242 L532.9703509345719,42.39359818106584 M532.9703509345719,42.39359818106584 L500.48036675633335,24.394487411978957 M500.48036675633335,24.394487411978957 L462.56452327787144,11.132103082853405 M462.56452327787144,11.132103082853405 L421.27127723693843,3.1967661097470454 M421.27127723693843,3.1967661097470454 L378.8299176647485,0.8915515069630828 M378.8299176647485,0.8915515069630828 L337.5302719065481,4.216825429193591 M337.5302719065481,4.216825429193591 L299.60003482880467,12.869818165419133 M299.60003482880467,12.869818165419133 L267.086158171678,26.261034630516065 M267.086158171678,26.261034630516065 L241.74571226274955,43.545197448220165 M241.74571226274955,43.545197448220165 L224.9513353466626,63.6659772520926 M224.9513353466626,63.6659772520926 L217.61614570405214,85.41302861822714 M217.61614570405214,85.41302861822714 L220.14218975937655,107.48684050287886 M220.14218975937655,107.48684050287886 L232.3966461038208,128.56975847650398 M232.3966461038208,128.56975847650398 L248.71124280712547,143.81896884770674 M248.71124280712547,143.81896884770674 L270.23919692760467,157.04267020423302 M255.8035754252754,155.47468739172805 L270.23919692760467,157.04267020423302 M270.52763120999344,775.229090834545 L257.15156154517325,792.7754651393548 M270.23919692760467,157.04267020423302 L256.8332552209152,174.61162799384294" stroke="black"  stroke-width="4"  fill="red"/></svg>